# xmcd CD database file
#
# Track frame offsets:
#	151
#	10863
#	33742
#	48379
#	65064
#	87993
#	101712
#	114528
#	129892
#	139999
#	154644
#	170272
#	182057
#	198599
#	211519
#	224437
#	239622
#	262806
#	277467
#	309192
#
# Disc length: 4323 seconds
#
# Revision: 0
# Processed by: cddbd v1.5.1PL2 Copyright (c) Steve Scherf et al.
# Submitted via: CDex 1.70beta2
#
DISCID=2510e114
DTITLE=Various Artist - History of Jazz
DYEAR=1954
DGENRE=Jazz
TTITLE0=MY FUNNY VALENTINE (Rodgers-Hart) Chet Baker Quartet - Feb 15
TTITLE1=ONCE IN A WHILE (Green-Edwards) Clifford Brown with Horace Silver - Feb 21
TTITLE2=BODY AND SOUL (Heyman-Sour-Eyton-Green) Sarah Vaughan and Her Trio - Apr 2
TTITLE3=THE LADY IS A TRAMP (Rodgers-Hart) Gerry Mulligan Quartet with Bob Brookmeyer - Jun 3
TTITLE4=AIREGIN (Rollins) Miles Davis Quintet feat Sonny Rollins - Jun 29
TTITLE5=I'LL TAKE ROMANCE (Oakland-Hammerstein) Lennie Niehaus Quintet - Jul 9
TTITLE6=MISTY (Garner) Erroll Garner Trio - Jul 27
TTITLE7=WARM VALLEY (Ellington) Johnny Hodges and His Orchestra - Aug 5
TTITLE8=THERE IS NO GREATER LOVE (Symes-Jones) Dinah Washington and Trio - Aug 14
TTITLE9=WHAT ISTHIS THING CALLED LOVE (Porter) Jay and Kai - Aug 24
TTITLE10=WHAT'S NEW (Haggart-Burke-Whitmark) Art Pepper Quintet - Aug 25
TTITLE11=LOVE OR LEAVE ME (Kahn-Donaldson) Billie Holiday and Her Orchestra - Sep 3
TTITLE12=ROSES OF PICARDY (Weatherley-Wood) The Red Norvo Septet - Sep 17
TTITLE13=GREGARIAN CHANT (Mingus) Charles Mingus - Oct 31
TTITLE14=BLUE LOU (Sampson-Mills) Benny Goodman and His Orchestra - Nov 9
TTITLE15=DON'T GET SCARED (Getz-Pleasure-Hendricks) King Pleasure acc by Quincy Jones Band - Dec 7
TTITLE16=I LOVE PARIS (Porter) Charlie Parker Quintet - Dec 10
TTITLE17='S WONDERFUL (Gershwin) Helen Merrill acc by Quincy Jones Orchestra - Dec 22
TTITLE18=DJANGO (Lewis) The Modern Jazz Quartet - Dec 23
TTITLE19=DETOUR AHEAD (Ellis-Carter-Frigo) Mary Ann McCall with Charlie Ventura's Band - Dec
EXTD=YEAR: 1954
EXTT0=
EXTT1=
EXTT2=
EXTT3=
EXTT4=
EXTT5=
EXTT6=
EXTT7=
EXTT8=
EXTT9=
EXTT10=
EXTT11=
EXTT12=
EXTT13=
EXTT14=
EXTT15=
EXTT16=
EXTT17=
EXTT18=
EXTT19=
PLAYORDER=
